# xmcd
#
# Track frame offsets:
#	150
#	18490
#	40988
#	56840
#	80808
#	92979
#
# Disc length: 2028 seconds
#
# Revision: 0
# Processed by: cddbd v1.4PL0 Copyright (c) Steve Scherf et al.
# Submitted via: dBpowerAMP V4.0
#
DISCID=4e07ea06
DTITLE=Lucifer - Early Tracks
DYEAR=1986
DGENRE=Metal
TTITLE0=Nightmares
TTITLE1=I Don't Know
TTITLE2=Pedophile
TTITLE3=Ghost Of Warning
TTITLE4=Monster
TTITLE5=Lucifer
EXTD=
EXTT0=
EXTT1=
EXTT2=
EXTT3=
EXTT4=
EXTT5=
PLAYORDER=
